# Blender v2.78 (sub 0) OBJ File: 'furtka.obj'
# www.blender.org
mtllib furtka.mtl
o furtka
v 0.049304 4.157244 -0.095750
v 0.040147 0.164461 0.117083
v 0.040147 0.164461 -0.099055
v 0.049304 4.157244 0.115969
v 7.580147 0.164461 0.117083
v 7.574277 4.157246 -0.095750
v 7.574277 4.157246 0.115969
v 7.580147 0.164461 -0.099055
v 0.130611 4.881253 -0.092446
v 0.130611 4.881253 0.114854
v 0.344290 5.585661 0.114854
v 0.344290 5.585661 -0.092446
v 0.691287 6.234847 0.114854
v 0.691287 6.234847 -0.092446
v 1.158266 6.803862 -0.092446
v 1.158266 6.803862 0.114854
v 1.727281 7.270841 -0.092446
v 1.727281 7.270841 0.114854
v 2.376467 7.617838 0.114854
v 2.376467 7.617838 -0.092447
v 3.080875 7.831518 -0.092447
v 3.080875 7.831518 0.114854
v 3.813433 7.903669 -0.092447
v 3.813433 7.903669 0.114854
v 4.545987 7.831519 0.114854
v 4.545987 7.831519 -0.092447
v 5.250394 7.617841 0.114854
v 5.250394 7.617841 -0.092447
v 5.899580 7.270845 -0.092446
v 5.899580 7.270845 0.114854
v 6.468598 6.803867 0.114854
v 6.468598 6.803867 -0.092446
v 6.935577 6.234850 0.114854
v 6.935577 6.234850 -0.092446
v 7.282576 5.585664 -0.092446
v 7.282576 5.585664 0.114854
v 7.496256 4.881257 -0.092446
v 7.496256 4.881257 0.114854
vt 0.3384 0.5946
vt 0.3333 0.7911
vt 0.6667 0.7911
vt 0.3337 0.1923
vt 0.3333 0.3972
vt 0.6667 0.3972
vt 0.9949 0.1704
vt 0.6684 0.1704
vt 0.6667 0.3710
vt 0.3333 0.7049
vt 0.3333 0.3973
vt 0.0000 0.3973
vt 0.6649 0.5946
vt 0.3435 0.5580
vt 0.6632 0.5580
vt 0.6632 0.5209
vt 0.3435 0.5209
vt 0.6632 0.4849
vt 0.3435 0.4849
vt 0.3435 0.4515
vt 0.6632 0.4515
vt 0.3435 0.4219
vt 0.6632 0.4219
vt 0.6632 0.3972
vt 0.3435 0.3972
vt 0.0000 1.0000
vt 0.0295 0.7049
vt 0.0000 0.7049
vt 0.0295 1.0000
vt 0.0612 0.7049
vt 0.0612 1.0000
vt 0.0938 1.0000
vt 0.0938 0.7049
vt 0.1262 1.0000
vt 0.1262 0.7049
vt 0.1569 0.7049
vt 0.1569 1.0000
vt 0.9898 0.0000
vt 0.6701 0.0000
vt 0.6701 0.0282
vt 0.9898 0.0282
vt 0.6701 0.0607
vt 0.9898 0.0607
vt 0.9898 0.0962
vt 0.6701 0.0962
vt 0.9898 0.1334
vt 0.6701 0.1334
vt 0.6664 0.1923
vt 0.3373 0.1551
vt 0.6630 0.1551
vt 0.3468 0.1190
vt 0.6535 0.1190
vt 0.3621 0.0857
vt 0.6382 0.0857
vt 0.0003 0.1923
vt 0.3329 0.1923
vt 0.3293 0.1551
vt 0.3828 0.0564
vt 0.6175 0.0564
vt 0.4079 0.0325
vt 0.5924 0.0325
vt 0.4366 0.0147
vt 0.5637 0.0147
vt 0.4678 0.0037
vt 0.5325 0.0037
vt 0.5001 0.0000
vt 0.0037 0.1551
vt 0.3199 0.1190
vt 0.0132 0.1190
vt 0.3045 0.0856
vt 0.0285 0.0856
vt 0.2839 0.0564
vt 0.0491 0.0564
vt 0.0743 0.0325
vt 0.2587 0.0325
vt 0.2300 0.0147
vt 0.1030 0.0147
vt 0.1989 0.0037
vt 0.1341 0.0037
vt 0.1665 0.0000
vt 1.0000 0.3710
vt 0.0000 0.7049
vn -1.0000 0.0023 0.0000
vn -0.0000 0.0006 1.0000
vn 0.0000 0.0003 1.0000
vn 1.0000 0.0015 0.0000
vn 0.0000 -1.0000 -0.0000
vn -0.9938 0.1116 0.0000
vn -0.9569 0.2903 0.0000
vn -0.8819 0.4714 0.0000
vn -0.7730 0.6344 0.0000
vn -0.6344 0.7730 0.0000
vn -0.4714 0.8819 0.0000
vn -0.2903 0.9569 0.0000
vn -0.0980 0.9952 0.0000
vn 0.0980 0.9952 0.0000
vn 0.2903 0.9569 0.0000
vn 0.4714 0.8819 0.0000
vn 0.6344 0.7730 0.0000
vn 0.7730 0.6344 0.0000
vn 0.8819 0.4714 0.0000
vn 0.9569 0.2903 0.0000
vn 0.9942 0.1071 0.0000
vn -0.0001 0.0015 1.0000
vn 0.0002 0.0014 1.0000
vn 0.0003 0.0002 1.0000
vn 0.0000 -0.0000 1.0000
vn -0.0002 0.0045 -1.0000
vn -0.0002 0.0009 -1.0000
vn 0.0009 0.0046 -1.0000
vn 0.0009 0.0004 -1.0000
vn 0.0000 0.0000 -1.0000
vn 0.0000 0.0008 -1.0000
usemtl WOOOD
s 1
f 1/1/1 3/2/1 2/3/1
f 4/4/2 2/5/3 5/6/3
f 6/7/4 7/8/4 5/9/4
f 2/10/5 3/11/5 8/12/5
f 4/13/6 9/14/6 1/1/6
f 9/14/6 4/13/6 10/15/6
f 9/14/7 10/15/7 11/16/7
f 9/14/7 11/16/7 12/17/7
f 12/17/8 11/16/8 13/18/8
f 12/17/8 13/18/8 14/19/8
f 14/19/9 13/18/9 15/20/9
f 15/20/9 13/18/9 16/21/9
f 15/20/10 16/21/10 17/22/10
f 17/22/10 16/21/10 18/23/10
f 17/22/11 18/23/11 19/24/11
f 17/22/11 19/24/11 20/25/11
f 19/26/12 21/27/12 20/28/12
f 19/26/12 22/29/12 21/27/12
f 22/29/13 23/30/13 21/27/13
f 23/30/13 22/29/13 24/31/13
f 23/30/14 24/31/14 25/32/14
f 23/30/14 25/32/14 26/33/14
f 26/33/15 25/32/15 27/34/15
f 26/33/15 27/34/15 28/35/15
f 28/35/16 27/34/16 29/36/16
f 29/36/16 27/34/16 30/37/16
f 29/38/17 30/39/17 31/40/17
f 29/38/17 31/40/17 32/41/17
f 32/41/18 31/40/18 33/42/18
f 32/41/18 33/42/18 34/43/18
f 34/43/19 33/42/19 35/44/19
f 35/44/19 33/42/19 36/45/19
f 35/44/20 36/45/20 37/46/20
f 37/46/20 36/45/20 38/47/20
f 37/46/21 38/47/21 7/8/21
f 37/46/21 7/8/21 6/7/21
f 7/48/22 10/49/23 4/4/2
f 38/50/24 10/49/23 7/48/22
f 38/50/24 11/51/25 10/49/23
f 36/52/25 11/51/25 38/50/24
f 13/53/25 11/51/25 33/54/25
f 6/55/26 1/56/27 9/57/28
f 33/54/25 16/58/25 13/53/25
f 31/59/25 16/58/25 33/54/25
f 31/59/25 18/60/25 16/58/25
f 30/61/25 18/60/25 31/59/25
f 30/61/25 19/62/25 18/60/25
f 27/63/25 19/62/25 30/61/25
f 27/63/25 22/64/25 19/62/25
f 25/65/25 22/64/25 27/63/25
f 25/65/25 24/66/25 22/64/25
f 33/54/25 11/51/25 36/52/25
f 37/67/29 6/55/26 9/57/28
f 37/67/29 9/57/28 12/68/30
f 35/69/30 37/67/29 12/68/30
f 35/69/30 12/68/30 14/70/30
f 34/71/30 35/69/30 14/70/30
f 34/71/30 14/70/30 15/72/30
f 32/73/30 34/71/30 15/72/30
f 32/73/30 15/72/30 29/74/30
f 29/74/30 17/75/30 20/76/30
f 28/77/30 29/74/30 20/76/30
f 28/77/30 20/76/30 21/78/30
f 26/79/30 28/77/30 21/78/30
f 26/79/30 21/78/30 23/80/30
f 29/74/30 15/72/30 17/75/30
f 1/1/1 2/3/1 4/13/1
f 5/6/3 7/48/22 4/4/2
f 6/7/4 5/9/4 8/81/4
f 1/56/27 8/12/31 3/11/31
f 2/10/5 8/12/5 5/82/5
f 6/55/26 8/12/31 1/56/27
